<?xml version="1.0" encoding="UTF-8"?>
<svg xmlns="http://www.w3.org/2000/svg" version="1.1" width="200" height="200" viewBox="0 0 200 200"><rect x="0" y="0" width="200" height="200" fill="#ffffff"/><g transform="scale(6.897)"><g transform="translate(0,0)"><path fill-rule="evenodd" d="M8 0L8 1L9 1L9 2L8 2L8 5L9 5L9 4L11 4L11 5L10 5L10 10L9 10L9 12L8 12L8 10L6 10L6 9L7 9L7 8L6 8L6 9L5 9L5 10L6 10L6 11L7 11L7 12L4 12L4 8L0 8L0 12L2 12L2 11L1 11L1 9L2 9L2 10L3 10L3 13L0 13L0 16L1 16L1 15L2 15L2 14L3 14L3 13L4 13L4 15L7 15L7 16L6 16L6 17L8 17L8 16L9 16L9 18L10 18L10 19L11 19L11 16L12 16L12 14L13 14L13 15L14 15L14 16L13 16L13 18L14 18L14 16L15 16L15 19L16 19L16 18L18 18L18 19L17 19L17 20L16 20L16 21L18 21L18 24L17 24L17 23L15 23L15 24L16 24L16 25L15 25L15 26L16 26L16 27L15 27L15 28L13 28L13 27L12 27L12 28L10 28L10 29L12 29L12 28L13 28L13 29L15 29L15 28L16 28L16 29L17 29L17 26L16 26L16 25L18 25L18 24L19 24L19 23L20 23L20 26L19 26L19 27L18 27L18 29L24 29L24 28L22 28L22 25L24 25L24 26L27 26L27 24L26 24L26 25L25 25L25 23L26 23L26 21L27 21L27 17L26 17L26 19L23 19L23 18L20 18L20 20L19 20L19 18L18 18L18 17L19 17L19 15L20 15L20 13L19 13L19 14L18 14L18 17L17 17L17 16L16 16L16 15L15 15L15 14L16 14L16 13L18 13L18 12L16 12L16 11L17 11L17 10L16 10L16 11L15 11L15 9L16 9L16 8L15 8L15 6L14 6L14 8L13 8L13 6L12 6L12 5L16 5L16 7L17 7L17 8L18 8L18 11L19 11L19 12L25 12L25 11L26 11L26 10L25 10L25 9L27 9L27 8L24 8L24 9L22 9L22 8L21 8L21 6L20 6L20 2L18 2L18 4L19 4L19 6L18 6L18 5L16 5L16 4L17 4L17 1L16 1L16 2L15 2L15 0L14 0L14 2L13 2L13 0L12 0L12 1L11 1L11 0L10 0L10 1L9 1L9 0ZM18 0L18 1L21 1L21 0ZM11 2L11 4L12 4L12 3L13 3L13 4L15 4L15 2L14 2L14 3L13 3L13 2ZM8 6L8 7L9 7L9 6ZM11 6L11 8L12 8L12 6ZM17 6L17 7L18 7L18 8L19 8L19 7L20 7L20 6L19 6L19 7L18 7L18 6ZM8 8L8 9L9 9L9 8ZM28 8L28 10L27 10L27 12L26 12L26 13L25 13L25 14L27 14L27 15L29 15L29 13L28 13L28 10L29 10L29 8ZM11 9L11 10L12 10L12 9ZM13 9L13 10L14 10L14 9ZM21 9L21 10L19 10L19 11L21 11L21 10L22 10L22 11L25 11L25 10L22 10L22 9ZM11 11L11 13L5 13L5 14L7 14L7 15L8 15L8 14L10 14L10 15L9 15L9 16L11 16L11 13L12 13L12 12L13 12L13 11ZM13 13L13 14L14 14L14 13ZM22 13L22 14L21 14L21 15L22 15L22 16L20 16L20 17L22 17L22 16L23 16L23 17L25 17L25 16L26 16L26 15L24 15L24 16L23 16L23 13ZM3 16L3 18L2 18L2 17L1 17L1 18L0 18L0 19L1 19L1 18L2 18L2 19L3 19L3 20L1 20L1 21L5 21L5 19L7 19L7 20L6 20L6 21L8 21L8 22L11 22L11 23L10 23L10 24L9 24L9 25L8 25L8 29L9 29L9 27L11 27L11 26L9 26L9 25L10 25L10 24L12 24L12 22L13 22L13 20L12 20L12 21L11 21L11 20L9 20L9 19L8 19L8 18L5 18L5 19L3 19L3 18L4 18L4 16ZM22 19L22 20L23 20L23 19ZM14 20L14 22L15 22L15 20ZM28 20L28 21L29 21L29 20ZM19 21L19 22L20 22L20 21ZM21 21L21 24L24 24L24 21ZM22 22L22 23L23 23L23 22ZM27 22L27 23L28 23L28 22ZM13 23L13 26L14 26L14 23ZM28 24L28 27L27 27L27 29L28 29L28 27L29 27L29 24ZM19 27L19 28L20 28L20 27ZM25 27L25 29L26 29L26 27ZM0 0L0 7L7 7L7 0ZM1 1L1 6L6 6L6 1ZM2 2L2 5L5 5L5 2ZM22 0L22 7L29 7L29 0ZM23 1L23 6L28 6L28 1ZM24 2L24 5L27 5L27 2ZM0 22L0 29L7 29L7 22ZM1 23L1 28L6 28L6 23ZM2 24L2 27L5 27L5 24Z" fill="#000000"/></g></g></svg>
